<svg width="100" height="100" viewBox="0 0 100 100" fill="none" xmlns="http://www.w3.org/2000/svg"><path d="M7 9c0-4.5 4.5-9 9-9h14.942v100H16c-4.5 0-9-5.5-9-9V9zm34.4 91H30.942V50C30.942 63.714 37 76 50 76s19-13 18.92-26C68.84 37 63 24 50 24c-13 0-19.058 13-19.058 26V0H41.4c10.55 0 19.677 2.048 27.382 6.143C76.488 10.238 82.451 16 86.67 23.429 90.89 30.857 93 39.714 93 50c0 10.19-2.11 19.048-6.33 26.571C82.45 84 76.488 89.761 68.782 93.857 61.077 97.952 51.95 100 41.4 100z" fill="#E60000"/></svg>